<svg xmlns="http://www.w3.org/2000/svg" viewBox="0 0 512 512">
  <!-- Cloud shape - white base -->
  <path d="M408 330c0-5.5-.5-10.9-1.5-16.2C425.8 295.5 438 270.2 438 242c0-57.4-46.6-104-104-104-16.7 0-32.5 3.9-46.5 10.9C272.7 119.6 241.4 100 206 100c-53 0-96 43-96 96 0 3.6.2 7.1.6 10.6C74.4 222.8 48 260.6 48 304c0 57.4 46.6 104 104 104h152c57.4 0 104-46.6 104-104z" fill="#fff" opacity="0.85"/>
  <!-- Cloud shape - blue overlay -->
  <path d="M396 318c0-5.5-.5-10.9-1.5-16.2C413.8 283.5 426 258.2 426 230c0-57.4-46.6-104-104-104-16.7 0-32.5 3.9-46.5 10.9C260.7 107.6 229.4 88 194 88c-53 0-96 43-96 96 0 3.6.2 7.1.6 10.6C62.4 210.8 36 248.6 36 292c0 57.4 46.6 104 104 104h152c57.4 0 104-46.6 104-104z" fill="#2563eb"/>
  <!-- Code brackets </> -->
  <text x="226" y="320" font-family="'SF Mono','Fira Code','Consolas',monospace" font-weight="700" font-size="160" fill="#0f172a" opacity="0.9">&lt;/&gt;</text>
</svg>
